<?xml version="1.0" encoding="UTF-8" standalone="no"?>
<!-- Generator: Adobe Illustrator 19.0.0, SVG Export Plug-In . SVG Version: 6.00 Build 0)  -->

<svg
   version="1.1"
   id="Layer_1"
   x="0px"
   y="0px"
   viewBox="0 0 64.16301 52.163006"
   xml:space="preserve"
   sodipodi:docname="picture.svg"
   inkscape:version="1.2 (1:1.2.1+202207142221+cd75a1ee6d)"
   width="64.163002"
   height="52.162998"
   xmlns:inkscape="http://www.inkscape.org/namespaces/inkscape"
   xmlns:sodipodi="http://sodipodi.sourceforge.net/DTD/sodipodi-0.dtd"
   xmlns="http://www.w3.org/2000/svg"
   xmlns:svg="http://www.w3.org/2000/svg"><defs
   id="defs47" /><sodipodi:namedview
   id="namedview45"
   pagecolor="#ffffff"
   bordercolor="#000000"
   borderopacity="0.25"
   inkscape:showpageshadow="2"
   inkscape:pageopacity="0.0"
   inkscape:pagecheckerboard="0"
   inkscape:deskcolor="#d1d1d1"
   showgrid="false"
   inkscape:zoom="2.6395334"
   inkscape:cx="171.43182"
   inkscape:cy="43.37888"
   inkscape:window-width="1920"
   inkscape:window-height="996"
   inkscape:window-x="0"
   inkscape:window-y="0"
   inkscape:window-maximized="1"
   inkscape:current-layer="g12" />
<g
   id="g12">
	<g
   id="g10"
   style="fill:#a0a0a0;fill-opacity:1"
   transform="matrix(0.13854402,0,0,0.13854402,1.1674232,-4.7386908)">
		<g
   id="g8"
   style="fill:#a0a0a0;fill-opacity:1">
			<path
   d="m 404.163,44.882 h -288 c -22,0 -40,18 -40,40 v 14 l -46.4,12.8 c -10.4,2.8 -19.2,9.2 -24.4,18.4 -5.2,9.2 -6.8,20 -4,30.4 l 56,208.8 c 2.8,10.4 9.2,19.2 18.4,24.4 6,3.6 13.2,5.6 20,5.6 3.6,0 6.8,-0.4 10.4,-1.2 l 183.2,-49.2 h 114.8 c 22,0 40,-18 40,-40 v -224 c 0,-22 -18,-40 -40,-40 z m -302,337.6 c -6.4,1.6 -12.8,0.8 -18.4,-2.4 -5.6,-3.2 -9.6,-8.4 -11.2,-14.8 l -56,-208.8 c -1.6,-6.4 -0.8,-12.8 2.4,-18.4 3.2,-5.6 8.4,-9.6 14.8,-11.2 l 42.4,-11.6 v 193.6 c 0,22 18,40 40,40 h 111.2 z m 326,-73.6 c 0,13.2 -10.8,24 -24,24 h -288 c -13.2,0 -24,-10.8 -24,-24 v -224 c 0,-13.2 10.8,-24 24,-24 h 288 c 13.2,0 24,10.8 24,24 v 113.6 l -38,-38 c -6.4,-6.4 -16,-6.4 -22.4,0 l -91.6,91.2 -0.4,-0.4 -46.4,-46.4 c -6,-6 -16.4,-6 -22.4,0 l -39.2,39.2 c -3.2,3.2 -3.2,8 0,11.2 3.2,3.2 8,3.2 11.2,0 l 39.2,-39.2 46.4,46.4 0.4,0.4 -32.4,32.4 c -3.2,3.2 -3.2,8 0,11.2 1.6,1.6 3.6,2.4 5.6,2.4 2,0 4,-0.8 5.6,-2.4 l 135.2,-134.8 47.6,47.6 c 0.4,0.4 1.2,0.8 1.6,1.2 z"
   id="path2"
   style="fill:#a0a0a0;fill-opacity:1" />
			<path
   d="m 148.563,263.282 -8,8 c -3.2,3.2 -3.2,8 0,11.2 1.6,1.6 3.6,2.4 5.6,2.4 2,0 4,-0.8 5.6,-2.4 l 8,-8 c 3.2,-3.2 3.2,-8 0,-11.2 -3.2,-3.2 -8,-3.2 -11.2,0 z"
   id="path4"
   style="fill:#a0a0a0;fill-opacity:1" />
			<path
   d="m 204.163,132.882 c 0,-22 -18,-40 -40,-40 -22,0 -40,18 -40,40 0,22 18,40 40,40 22,0 40,-18 40,-40 z m -40,24 c -13.2,0 -24,-10.8 -24,-24 0,-13.2 10.8,-24 24,-24 13.2,0 24,10.8 24,24 0,13.2 -10.8,24 -24,24 z"
   id="path6"
   style="fill:#a0a0a0;fill-opacity:1" />
		</g>
	</g>
</g>
<g
   id="g14">
</g>
<g
   id="g16">
</g>
<g
   id="g18">
</g>
<g
   id="g20">
</g>
<g
   id="g22">
</g>
<g
   id="g24">
</g>
<g
   id="g26">
</g>
<g
   id="g28">
</g>
<g
   id="g30">
</g>
<g
   id="g32">
</g>
<g
   id="g34">
</g>
<g
   id="g36">
</g>
<g
   id="g38">
</g>
<g
   id="g40">
</g>
<g
   id="g42">
</g>
</svg>
